<svg version="1.2" xmlns="http://www.w3.org/2000/svg" viewBox="0 0 1063 544" width="1063" height="544">
	<title>signature</title>
	<style>
		.s0 { fill: #2024a0 } 
		.s1 { fill: #4542b8 } 
		.s2 { fill: #3336b2 } 
		.s3 { fill: #272aa8 } 
		.s4 { fill: #3f3fb8 } 
		.s5 { fill: #4546be } 
		.s6 { fill: #2828a0 } 
		.s7 { fill: #2c2fae } 
		.s8 { fill: #3c3cb6 } 
		.s9 { fill: #4f49bc } 
		.s10 { fill: #4a4dc5 } 
		.s11 { fill: #1c2096 } 
		.s12 { fill: #232496 } 
		.s13 { fill: #1e1e90 } 
		.s14 { fill: #1d1d81 } 
	</style>
	<g id="Background">
		<path id="Path 30" class="s0" d="m286.3 233.8c-1.1 1.5-4.7 6.8-7.9 11.7-3.3 4.9-6.8 10.7-7.9 12.7-1.1 2.1-2.9 4.2-4 4.6-1.1 0.5-3.8 1.8-6 3-2.2 1.1-6.7 3.3-10 5-3.3 1.6-7.6 3.6-9.5 4.5-1.9 0.8-6.7 2.5-10.5 3.7-5.7 1.8-7.6 2.1-10.5 1.2-1.9-0.6-7.6-1.9-12.5-2.9-7.4-1.4-13.2-1.7-32-1.5-14.2 0.1-26.2 0.8-31.5 1.6-4.7 0.8-12.6 2.4-17.5 3.5-5 1.1-12.8 3.4-17.5 5.1-4.7 1.7-13.1 5.3-18.8 8.1-7.4 3.6-10.1 5.3-9.7 6.4 0.3 0.9-0.2 1.6-1.3 1.8-0.9 0.2 0.2 0.6 2.5 1 3.5 0.6 5.1 0.2 9-1.9 2.7-1.4 9.1-4.1 14.3-6.1 5.2-1.9 10.4-3.9 11.5-4.4 1.1-0.6 3.3-1.2 5-1.3 1.6-0.2 3.7-0.5 4.5-0.8 0.8-0.4 4.6-1.4 8.5-2.3 3.8-0.9 12.5-2.1 19.2-2.6 6.8-0.5 20.1-0.7 29.5-0.5 12.3 0.2 18.3 0.8 20.8 1.8 1.9 0.8 4.1 1.3 4.7 1.1 0.7-0.1 1.3 0 1.3 0.4 0.1 0.5-2.8 1.8-6.2 3.1-3.5 1.3-7.2 2.7-8.3 3.3-1.5 0.7-0.7 0.9 3.2 0.7 3-0.2 5.3 0.1 5.3 0.7 0 0.6-1 1.5-2.2 2.2-1.3 0.7-3.2 1.4-4.3 1.6-1.1 0.3-0.5 0.5 1.5 0.6 2 0.1 5.7-1 8.5-2.4 2.7-1.4 5.8-2.5 6.7-2.5 1 0 2.9-0.6 4.3-1.3 1.8-0.8 2.2-1.4 1.3-1.9-1-0.5-0.8-1.1 0.7-2.2 1.1-0.8 2.3-1.2 2.7-1 0.5 0.2 0.8-0.2 0.8-0.9 0-0.6 2.4-2.4 5.3-3.9 4-2 6.1-2.5 9.2-2 2.9 0.4 3.8 0.2 3.2-0.6-0.5-0.8 0.5-1.4 3-1.8 2.6-0.3 4-0.1 4.5 0.8 0.5 1 1 1 2 0.2 0.7-0.6 2.5-1.4 4-1.8 1.6-0.3 2.8-0.3 2.8 0.1 0.1 0.5-0.6 1.5-1.5 2.3-0.9 0.8-1.9 2.4-2.2 3.5-0.3 1.1-1.2 2.7-1.9 3.5-1 1.1-1.2 2.2-0.5 4 0.5 1.4 1 2.1 1 1.5 0.1-0.6 1.5-1.1 3.1-1.3 1.7-0.1 3 0.2 3 0.8 0 0.6 0.3 1 0.7 1 0.5 0 1.4-1.6 2-3.5 0.7-1.9 1.7-3.5 2.3-3.5 0.6 0 1.2-0.8 1.3-1.8 0.2-0.9 2.1-4.5 4.3-8 3.3-5.2 4.9-6.7 10.2-9.5 3.4-1.7 6.3-3.5 6.2-4 0-0.4-0.9-1-2-1.5-1.1-0.4-2.2-1.4-2.4-2.2-0.2-0.8 2.5-6.1 6-11.8 3.5-5.6 6.4-10.6 6.4-11.2 0-0.6-0.8-1.9-1.8-3-0.9-1.1-2.2-2-2.8-2-0.6 0-2 1.2-3.1 2.7zm20.2 72.9c-2.8 0.8-6.9 1.8-9.3 2.2-2.3 0.4-4.2 1-4.2 1.4 0 0.5 0.3 0.8 0.7 0.8 0.5 0 0.8 0.7 0.8 1.5 0 0.8-0.6 1.5-1.3 1.5-0.6 0-1.2 0.4-1.2 1 0 0.5 1 1.2 2.2 1.5 1.3 0.3 3.2 0.5 4.3 0.5 1.1 0 4.5-0.7 7.5-1.6 3-0.9 6.3-2 7.2-2.5 1-0.5 2.7-0.9 3.8-0.9 1.5 0 1.9-0.5 1.5-2-0.3-1.1 0.1-2.2 0.7-2.4 0.7-0.2 1.1-0.6 0.8-0.9-0.3-0.3-2.3-0.8-4.5-1.1-2.3-0.3-6.1 0.1-9 1zm-159.5 4.4c-3 1-5.7 1.7-6 1.4-0.3-0.2-1.2 0.2-2 0.9-0.8 0.7-6.9 3-13.5 5.1-6.6 2.1-13 4.2-14.3 4.7-1.2 0.5-3.2 0.9-4.5 0.9-1.2 0-3.6 0.7-5.2 1.6-1.7 0.8-4.7 1.8-6.7 2.2-2 0.4-3.5 1-3.2 1.4 0.2 0.5 1.5 0.8 2.9 0.8 1.4 0 2.3 0.4 2 1-0.3 0.5 0.2 1.7 1 2.5 1.3 1.3 2.1 1.3 6.7 0 2.9-0.9 11-3.5 18.1-5.8 7-2.3 12.7-4.5 12.7-5 0-0.4 1-0.7 2.2-0.7 1.3 0 6.1-1.3 10.8-2.9 4.7-1.5 9.4-3.3 10.5-3.9 1.8-1 1.7-1.1-1.3-1.2-1.7 0-3.2-0.2-3.2-0.5 0-0.3 0.4-1.4 1-2.5 0.8-1.6 0.7-2-0.8-1.9-0.9 0-4.2 0.9-7.2 1.9zm56.4 51.2c-0.9 1.8-3 4.9-4.6 6.8-1.6 1.9-3.8 4.5-4.9 5.7-1 1.3-1.9 2.9-1.9 3.5 0 0.7-2 4.1-4.5 7.5-2.5 3.5-4.3 7-4 7.8 0.3 0.8-0.7 2.7-2.2 4.2-2.5 2.6-2.6 2.8-0.8 3.1 1.1 0.2 2.5-0.4 3.2-1.5 0.9-1.5 1.2-1.5 1.6-0.3 0.4 0.9 0.6 0.6 0.6-0.8 0.1-1.2 0.7-2.4 1.3-2.6 0.7-0.3 1.7 0 2.3 0.5q1 1 6.4-6.8c3-4.3 6.9-9.9 8.7-12.6 2.4-3.3 3-4.7 1.9-4.7-0.8 0-1.6-0.5-1.8-1.2-0.1-0.6 0.8-3.2 2.1-5.7 1.7-3.5 1.9-4.8 1-5.3-0.7-0.4-1.6-0.8-2-0.8-0.4 0-1.5 1.5-2.4 3.2zm217.8 35c0 0.7-0.4 2.3-0.8 3.6-0.5 1.2-1.5 2.5-2.2 2.7-0.6 0.3-1.2 0.9-1.2 1.5 0 0.5 0.8 0.8 1.7 0.5 1-0.3 2.4 0.1 3.1 0.7 0.7 0.7 1 2.1 0.7 3-0.3 1-0.2 2.4 0.1 3 0.4 0.9 2.4-0.6 5.6-4.2 3.7-4.2 4.8-6 4.4-7.8-0.5-1.6-1.5-2.3-4.4-2.8-2-0.3-4.5-0.7-5.4-1-1-0.4-1.7-0.1-1.6 0.8z"/>
		<path id="Path 32" class="s1" d="m786 146c-1.2 0.3-2.5 1.2-3 2-0.5 0.8-2.1 4.2-3.6 7.5-1.4 3.3-3.2 6.3-4 6.8-0.8 0.4-1.4 2.3-1.4 4.5 0 2.2-1.4 6.4-3.5 10.4-2.7 5.2-3.3 7.5-2.8 9.6 0.5 2 0.4 2.5-0.5 2-0.8-0.5-1.2-0.2-1.2 1 0 0.9 0.5 2.2 1.2 2.8 1 0.9 2 0.8 4-0.2 1.6-0.8 3.2-2.4 3.7-3.6 0.5-1.3 3.4-7.5 6.4-13.8 3-6.3 6.7-14.3 8.1-17.8 1.5-3.6 2.3-6.9 1.9-7.9-0.4-1-1.3-2.3-2-2.9-0.7-0.5-2.2-0.7-3.3-0.4zm-117.5 72.6c-1.1 0.3-4 1-6.5 1.6-2.5 0.6-7.2 1.9-10.5 3-3.3 1-7.1 2.6-8.5 3.5-1.4 0.9-3.9 2.1-5.5 2.7-1.6 0.6-4.9 2.2-7.2 3.6-2.5 1.4-4.3 3.3-4.3 4.3 0 0.9 0.7 2.4 1.5 3.2 1.3 1.3 2.7 0.9 12.3-3.9 5.9-3 13.8-6.4 17.7-7.5 4.6-1.4 9.2-2.1 13.5-2 4.3 0.1 7.5 0.8 9.5 2 1.6 1.1 4.2 3.1 5.6 4.6 1.5 1.6 3.7 4.8 4.9 7.3 1.7 3.6 2.3 6.9 2.7 16 0.4 7.8 0.1 13.5-0.8 17.5-0.7 3.3-1.4 6.7-1.5 7.5 0 0.8-0.2 2.1-0.3 2.8 0 0.6-0.8 1.2-1.6 1.2-0.8 0-1.7 0.4-2 1-0.3 0.6-0.2 1.8 0.1 2.8 0.6 1.5 0.8 1.5 1.5 0.2 0.6-1.1 0.9-0.8 0.9 1.3 0 2.4 0.2 2.6 2 1.7 1.4-0.7 2.1-0.7 2.4 0.3 0.4 1 0.5 1 0.5 0 0.1-1 0.6-1 2.1-0.3 1.6 0.8 2.1 0.6 2.5-1 0.3-1.1 1.2-2 2-2 0.8 0 3.4-1.1 5.7-2.5 2.4-1.4 4.6-2.5 5-2.5 0.5 0 0.1 0.9-0.7 2-1.3 1.8-1.3 2.2 0.2 4.1 1 1.1 2.7 2.4 3.8 2.9 1.7 0.6 2.4-0.1 4.8-4.4 1.5-2.8 2.7-5.7 2.7-6.3 0-0.7 0.6-1.5 1.2-1.6 0.7-0.2 2.2-2.1 3.3-4.3 1.3-2.6 2.8-4 4.3-4.1 1.2-0.2 2.2-1 2.2-1.8 0-0.8 0.7-1.5 1.5-1.5 0.8 0 1.5-0.3 1.5-0.7 0-0.5-0.9-1.5-1.9-2.3-1.1-0.8-1.8-1.8-1.5-2.2 0.2-0.5-0.1-0.8-0.6-0.8-0.5 0-1.2 0.7-1.5 1.5-0.3 0.8-1.3 1.4-2.3 1.3-0.9-0.2-2.2-1-2.8-1.8-1-1.3-1.3-1.2-1.8 0.8-0.4 1.4-1.2 2-2.1 1.7-0.8-0.3-1.5-0.1-1.5 0.5 0 0.6-0.5 1-1 1-0.5 0-2.5 1.1-4.3 2.5-1.7 1.3-3.5 2.5-4 2.5-0.4 0-1.7 0.9-3 2-1.2 1.1-3.4 2.5-5 3l-2.7 1c1.2-5.8 1.5-13.8 1.5-21.5 0-11.4-0.4-14.8-1.8-18-1-2.2-2.4-5.1-3-6.3-0.7-1.3-3.2-4.4-5.7-6.9-2.5-2.5-5.9-5.2-7.5-6.1-1.6-0.8-3.7-1.6-4.5-1.7-0.8-0.1-3.3-0.5-5.5-0.8-2.2-0.3-4.9-0.3-6-0.1zm23.2 119.2c-0.6 2-0.9 2-2.2 0.7-0.8-0.8-2.1-1.5-2.8-1.5-0.6 0-2.7 1.7-4.5 3.8-1.8 2-4.3 5.8-5.5 8.5-1.2 2.6-2.4 4.7-2.7 4.7-0.3 0-0.5 1.2-0.5 2.6 0 2.3-0.5 2.7-3.5 3-1.9 0.3-6.4 0.6-10 0.8-3.6 0.2-7.9 0.4-9.5 0.5l-3 0.2 6 4.9c-4.2 0.2-3.7 0.5-1 1 2.2 0.5 10.1 0.6 17.5 0.4 7.4-0.2 37.1-0.6 66-0.8 41.8-0.2 53 0 55 1 1.6 0.9 2.9 1 3.8 0.4 0.6-0.6 2.2-0.7 3.5-0.4 1.4 0.3 2.7 0 3.5-1 0.7-1 0.9-2.6 0.5-4.3-0.5-1.4-1.7-3.2-2.8-4-1.1-0.7-3.7-1.3-5.8-1.3-2 0-3.9 0.4-4.2 1-0.3 0.6-18.5 1-51.5 1-28 0-51.7 0.2-52.5 0.5-0.9 0.3-1.5-0.1-1.5-1 0-0.8 0.5-1.7 1-2 0.5-0.3 1-1.4 1-2.5 0-1.1 0.3-2 0.8-2 0.4 0 1.3-1.5 2.1-3.2 0.7-1.8 2-4.7 2.8-6.3 0.8-1.6 1.3-3.9 1.1-5-0.4-1.9-0.5-1.9-1.1 0.3z"/>
		<path id="Path 33" class="s2" d="m499.5 141.5c-2.8 0.7-5.5 1.9-6.2 2.6-0.9 1.1-0.9 1.6 0 2.1 0.9 0.5 0.9 1.2 0 3.2-0.7 1.4-2.3 3-3.5 3.5-1.3 0.6-4.3 2.4-6.8 4-2.5 1.7-5.1 3.1-5.8 3.1-0.6 0-1.3 0.4-1.5 0.9-0.1 0.4-5.6 3.7-12.2 7.1-6.6 3.5-15.1 7.8-19 9.7-3.9 1.9-8.1 4-9.5 4.9-1.4 0.8-3.9 2-5.5 2.6-1.6 0.7-5.3 2.4-8 4-2.8 1.5-7.9 4.2-11.5 5.9-3.6 1.7-7.2 3.5-8 4-0.8 0.5-5.6 2.9-10.5 5.5-4.9 2.5-9.9 5.2-11 5.9-2 1.3-2 1.4 0.2 1.9 1.3 0.3 2.4 1.2 2.4 1.8 0.1 0.7 0.1 1.6 0 2 0 0.5 0.5 0.8 1.1 0.8 0.7 0 7.2-2.9 14.3-6.5 7.1-3.7 15-7.7 17.5-9.1 2.5-1.4 7.2-3.9 10.5-5.6 3.3-1.6 6.9-3.5 8-4.1 1.1-0.6 4-2 6.5-3.3 2.5-1.2 10.6-5.2 18-9 7.4-3.7 15.3-7.7 17.5-8.8 2.2-1.2 5.5-3.1 7.3-4.4 1.7-1.2 3.4-2.2 3.7-2.2 0.3 0 2-1 3.8-2.3 1.9-1.2 6-3.8 9.1-5.7 3.2-1.9 7.4-4.8 9.4-6.3 2-1.6 4-3.5 4.4-4.3 0.5-0.8 0.1-2.2-1-3.4-1.1-1.4-2.8-2-5.2-1.9-1.9 0-5.8 0.7-8.5 1.4zm-85.5 13.1c-4.1 0.8-14.5 2.8-23 4.4-8.5 1.7-18.2 3.5-21.5 4.1-3.3 0.6-7.8 1.4-10 1.9-2.2 0.5-7.4 1.6-11.5 2.4-4.1 0.8-10.8 2-14.8 2.5-6.3 1-7 1.3-6 2.6 1.1 1.4 0.9 1.6-1.5 1.5-1.5 0-2.7 0.4-2.7 1 0 0.6 2.7 1 6.2 1 3.5-0.1 7.2 0 8.3 0 1.1 0.1 5.4-0.5 9.5-1.3 4.1-0.9 15.1-2.9 24.5-4.6 9.4-1.7 25.3-4.7 35.5-6.7 10.2-2 19.4-4 20.5-4.5 1.6-0.7 1.2-0.8-1.5-0.5-1.9 0.2-4.2 0-5-0.5-1.3-0.8-1.3-0.9 0-0.9 0.8 0.1 2.3-0.8 3.3-2 1.7-1.9 1.7-2-0.5-1.9-1.3 0-5.7 0.7-9.8 1.5zm60 224c-3.6 0.7-8.8 1.3-11.5 1.4-2.8 0-6 0.2-7.3 0.5-1.3 0.3-2 1-1.7 1.7q0.5 1.3-4.1 2.3c-2.6 0.6-4.9 1.6-5.1 2.2-0.2 0.8 0.7 1.3 1.9 1.3 1.3 0 3.4 0.1 4.8 0.2 1.4 0.1 5.2-0.2 8.5-0.6 3.3-0.4 12.3-1.6 20-2.7 7.7-1 14.2-2.1 14.5-2.3 0.3-0.3-1.6-0.8-4.1-1.1-4.4-0.7-4.5-0.8-2-2l2.6-1.2c-3.9-1-6.1-1.2-7.5-1.2-1.4 0.1-5.4 0.7-9 1.5zm-82 14.4c-4.7 1.1-15 3.7-23 5.9-8 2.2-14.1 4-13.5 4.1 0.6 0.1-0.4 0.8-2 1.5-2.7 1.3-2.7 1.4-0.8 1.5 1.3 0 2.4 0.4 2.5 1 0.2 0.5 1.4 1.1 2.8 1.2 1.4 0.1 7.7-1.1 14-2.6 6.3-1.5 14.9-3.6 19-4.6 4.1-1 10.4-2.2 14-2.6 5.2-0.5 6-0.8 4.2-1.5-1.2-0.5-2.2-1.3-2.2-1.9 0-0.6 0.6-1 1.2-1q1.3 0 0.3-0.9c-0.6-0.5-2.6-1.1-4.5-1.4-1.9-0.3-7.3 0.3-12 1.3z"/>
		<path id="Path 34" class="s3" d="m313.5 242.5c-2.2 1.4-5 2.5-6.2 2.5-1.3 0-2.8 0.7-3.5 1.5-0.7 0.9-1.7 1.6-2.3 1.6-0.6 0-5.3 2.1-10.6 4.7-7.5 3.6-9.6 5.1-9.3 6.4 0.2 1 1.1 1.8 1.9 1.8 0.8 0 1.7 0.7 2 1.5 0.4 1.3 1 1.2 3.5-0.5 1.6-1.1 3.9-2 5-2 1.1 0 2-0.3 2-0.8 0-0.4 2.3-1.6 5.2-2.6 2.9-1.1 6.4-2.6 7.8-3.3 1.4-0.7 3.2-1.3 4-1.2 0.8 0 2-0.6 2.6-1.3 0.6-0.7 3.7-2.1 6.8-3.1 3.1-0.9 5.8-2.1 6.1-2.7 0.3-0.6-1.2-1-3.5-1-2.2 0-4-0.4-4-1 0-0.6 0.4-1 1-1 0.6 0 1-0.4 1-1 0-0.6-1.2-1-2.7-1-1.6 0-4.6 1.2-6.8 2.5zm-122.6 52.2c-1.3 0.7-4 1.9-5.9 2.8-1.9 0.8-3.9 1.5-4.5 1.6-0.6 0-6.4 1.9-13 4.4-6.6 2.4-12.1 5-12.2 5.7 0 0.7-0.5 2.2-1 3.2-0.8 1.9-0.4 1.9 5.2 1.4 3.7-0.3 8.7-1.7 13-3.7 3.8-1.7 7.4-3.2 8-3.2 0.6 0.1 3.2-1 6-2.3 2.7-1.3 7-2.9 9.5-3.7 4.1-1.2 4.3-1.4 2-2l-2.5-0.7c3.9-0.2 5.8-0.8 6.7-1.5 1-0.7 1.7-1.6 1.8-2.2 0-0.6-2.4-1-5.3-1-2.9 0-6.4 0.5-7.8 1.2zm145.1 2.3c-2.5 1-8.6 3.1-13.5 4.5-6.4 2-8.6 3-7.5 3.6 0.8 0.5 2.3 0.9 3.3 0.9 0.9 0 1.7 0.4 1.7 1 0 0.6-0.4 1.1-1 1.2-0.5 0.2-0.6 0.9-0.2 1.6 0.6 1 1.7 1 5.7-0.3 2.8-0.8 6.6-2 8.5-2.6 1.9-0.7 4.6-1.3 6-1.4 1.4-0.2 2.7 0.2 3 0.7 0.3 0.5 1.3 0.3 2.3-0.6 0.9-0.9 1.7-3 1.7-4.6q0-3-1.5-3c-0.8 0-1.7-0.7-2-1.5-0.3-0.8-0.8-1.5-1.3-1.4-0.4 0.1-2.7 0.9-5.2 1.9zm-104 26c0 0.6-0.7 0.9-1.7 0.7-1-0.1-2.5 1.5-4.2 4.4-1.4 2.6-3.6 6.2-4.8 8-1.6 2.4-1.9 3.5-1 3.8 0.6 0.2 2.1 1.5 3.2 2.8l2 2.5c4-6 6.1-9.3 7.1-11.2 1.3-2.3 1.8-5 1.7-7.8-0.2-2.3-0.8-4.2-1.3-4.2-0.6 0-1 0.4-1 1zm212.3 42.3c-0.6 1.6-1.1 3.1-1.2 3.5 0 0.4-0.8 1.4-1.7 2.2-0.9 0.8-2.5 3.2-3.5 5.2-1.1 2.1-3.5 5.4-5.4 7.3-2.7 2.7-4.6 3.6-8.3 4-2.6 0.3-7.6 1.1-11.2 1.7-3.6 0.5-7.4 1.4-8.5 1.8-1.8 0.8-1.7 0.9 0.7 0.9 1.6 0.1 3 0.5 3.3 1.1 0.3 0.6 0 1.1-0.7 1.2q-1.2 0.3-0.2 1.7c0.7 1.1 2.3 1.3 6.4 0.8l5.5-0.6c-7.8 6.5-11.7 10-13.9 12.1-2.1 2.1-4.1 3.8-4.5 3.8-0.3 0.1-1.1 0.8-1.8 1.8-0.7 0.9-1.3 2.4-1.3 3.2 0 1.2 0.7 1.3 3.2 0.8 1.8-0.4 4.4-1 5.8-1.4 2.4-0.7 2.4-0.6 0.8 1.2-1 1-1.7 3-1.7 4.4 0 2.2 0.1 2.3 0.8 0.5 0.7-1.9 0.8-1.9 1.4 0.2 0.4 1.3 1.1 2.1 1.7 1.8 0.6-0.3 1-0.1 1 0.5 0 0.6 2.6-1.7 5.7-5 4.7-4.8 5.8-6.6 5.8-9.2 0-1.8-0.4-3.9-0.8-4.6-0.4-0.6-1.6-1-2.7-0.7-1.1 0.3-2 0.1-2-0.5 0-0.6 0.6-1.3 1.3-1.8 0.8-0.4 1.7-1.6 2.2-2.7 0.4-1.1 0.7-2.6 0.7-3.3-0.1-0.7 0.5-1 1.5-0.8 1 0.3 3.5 0.7 5.5 1 2.9 0.5 3.9 1.2 4.4 2.8 0.5 2.1 0.9 1.8 3.7-2.7 1.8-2.7 4.3-5.5 5.7-6.2 1.4-0.7 3.9-1.5 5.5-1.8 2.3-0.5 2.6-0.8 1.5-1.5-0.8-0.4-2.4-0.5-3.4-0.1-1.5 0.4-1.8 0.2-1.5-0.9 0.3-0.8 2.7-1.9 5.2-2.5 2.6-0.6 4.7-1.3 4.7-1.8 0-0.4-0.9-0.7-2-0.7-1.7 0-1.6-0.3 0.8-2.7l2.7-2.6c-3.9-1.4-5.2-2-5.5-2.3-0.3-0.2 0.6-1.5 2-2.9 1.4-1.4 2.3-2.7 2-3-0.3-0.3-2.2-0.6-4.2-0.7-3.1-0.3-3.8-0.7-4.1-2.8l-0.3-2.5z"/>
		<path id="Path 35" class="s4" d="m622.9 237.9c-0.8 0.3-2.6 1.4-4.1 2.5-1.6 1-2.8 2.6-2.9 3.5 0 0.9-0.2 1.1-0.5 0.3-0.3-0.8-1.2-0.5-3 1-1.4 1.3-6.1 5.9-10.5 10.3-4.3 4.4-7.9 8.4-7.9 9 0 0.6-0.7 1.7-1.4 2.5-0.8 0.8-3.3 5.1-5.6 9.5-4.2 8-4.2 8-12.8 12.5-8.7 4.6-8.7 4.6-8.4 8.3 0.1 2-0.1 3.6-0.5 3.5-0.5 0-1.6 0.2-2.5 0.5-1 0.4-2.6 1-3.5 1.3-1.7 0.6-1.6 0.7 0.2 1.6 1.5 0.7 3.4 0.2 8-2.2 3.3-1.7 7.8-4.2 10-5.6 2.2-1.3 4.3-2.4 4.8-2.4 0.4 0 1.2 1.7 1.8 3.7 0.6 2.1 2.1 5.8 3.2 8.2 1.3 2.5 3.7 5.2 5.7 6.5 2.9 1.8 5.3 2.1 14.5 2.3 7.3 0.1 14.6-0.4 21.5-1.7 5.8-1 11.6-2.1 13-2.4 1.4-0.3 3.4-0.8 4.5-1.1 1.1-0.3 5.8-1.8 10.5-3.2 4.7-1.4 9.4-3 10.5-3.4 1.1-0.4 4.7-1.6 8-2.6 3.3-0.9 6.2-2 6.5-2.4 0.3-0.4 2.1-1 4-1.4 2.9-0.7 3.3-0.6 2.6 0.6-0.5 0.8-1 3.1-1.2 5.1-0.2 2.1 0.3 5.4 1.1 7.3 1.4 3.2 1.8 3.5 5 3 2-0.3 3.5-0.1 3.5 0.5 0 0.6-0.5 1.8-1.1 2.7-0.7 1.3-0.8 2.9-0.1 5.3l1 3.5c0.2-5.2 0.8-6.7 1.7-7 0.8-0.3 1.5-1.4 1.5-2.5 0-1.1-0.5-2-1-2-0.5 0-1.5-1.9-2-4.3-1-3.7-0.9-4.4 1-6 1.8-1.5 1.9-2.1 0.8-5.5-0.7-2-1.7-4-2.3-4.4-0.5-0.4-1.3-0.2-1.7 0.5-0.6 0.9-0.8 0.9-0.8-0.1 0-0.9-0.5-0.9-2-0.2-1.8 0.9-2 0.7-2-1.8 0-2-0.3-2.3-0.9-1.2-0.7 1.3-0.9 1.3-1.5-0.3-0.3-0.9-1.3-1.7-2.1-1.7-0.8 0-3 0.7-4.7 1.5-1.8 0.8-6 2.4-9.3 3.5-3.3 1.2-9.8 3.2-14.5 4.6-4.7 1.4-10.7 3.1-13.5 3.9-2.7 0.8-7.9 1.9-11.5 2.5-3.6 0.5-7.4 1.1-8.5 1.3-1.1 0.2-4.5 0.7-7.5 1.2-3 0.4-8.2 0.4-11.5 0.1-5.7-0.6-6.1-0.9-8.7-4.9-1.5-2.3-3.1-6-3.4-8.2-0.5-3.4-0.3-4.2 1.7-5.5 1.2-0.8 7.9-4.1 14.8-7.2 6.9-3.2 13.1-5.8 13.6-5.8 0.5 0 3.4-1.1 6.3-2.5 2.8-1.4 8.2-3.4 12-4.6 3.7-1.1 7.4-2.5 8.2-3 0.8-0.4 3.6-1.9 6.3-3.1 2.6-1.3 4.7-2.6 4.7-3.1 0-0.4-0.5-1.8-1-3.2-0.7-1.8-1.8-2.5-3.7-2.5-1.6 0-5 0.9-7.8 2-2.7 1.2-7.2 3.2-10 4.5-2.7 1.3-7.7 3.5-11 4.9-3.3 1.4-6.8 2.6-7.7 2.6-1 0-1.8 0.4-1.8 1 0 0.6-0.5 1-1 1-0.5 0-4.8 1.8-9.5 4-4.7 2.2-9 4-9.5 4-0.5 0-0.7-0.8-0.4-1.8 0.4-0.9 0.9-2.6 1.2-3.7 0.3-1.1 1.5-3.1 2.6-4.4 1.2-1.4 4.6-5 7.7-8 3.1-3.1 7.1-6.9 9-8.5 1.9-1.6 5.1-4.1 7.2-5.5 2.1-1.4 3.8-2.9 3.7-3.4 0-0.4-0.8-1.5-1.8-2.6-1-1-2.5-1.6-3.3-1.2zm-89.4 132.2c-3.3 0.4-8.9 1-12.5 1.3-3.6 0.3-8.7 1.1-11.5 1.7-2.7 0.6-9.1 1.6-14.2 2.2-5 0.7-9 1.5-8.7 2 0.2 0.4 1.2 0.7 2.2 0.7 1 0.1 0.5 0.6-1.3 1.4l-3 1.2c10.8 2.2 13.7 2.1 20.5 1 4.7-0.8 13-2 18.5-2.6 5.5-0.7 12.5-1.6 15.5-2.1 3-0.5 7.2-0.9 9.3-0.9 2 0 3.9-0.4 4.2-1 0.3-0.6-1.1-1-3.2-1-3.1 0-3.8-0.4-4-2-0.2-1.2 0.4-2.1 1.5-2.4 0.9-0.2-0.3-0.4-2.8-0.3-2.5 0-7.2 0.4-10.5 0.8z"/>
		<path id="Path 36" class="s5" d="m748.8 289.4c-2.6 0.6-5.1 1.4-5.5 1.8-0.5 0.4-3.9 1.3-7.8 2.1-3.8 0.8-7.6 1.3-8.2 1.1-0.7-0.2-1.3 0.1-1.3 0.6 0 0.6-1 1-2.3 1-1.3 0-2.7 0.3-3 0.8-0.4 0.4-0.1 1.3 0.6 2 1 1 0.7 1.3-1.5 1.2-1.6 0-2.6 0.5-2.3 1 0.3 0.6-0.3 1-1.2 1.1-1.5 0-1.5 0.2-0.3 0.7 0.8 0.4 1.5 1.4 1.5 2.2 0 1 0.7 1.4 2.1 1.1 1.1-0.2 2.5-0.7 3-1.1 0.5-0.5 4.3-1.6 8.4-2.5 4.1-0.9 10-2.3 13-3.2 3-0.8 6.6-1.8 8-2.2 1.5-0.5 2.4-1.4 2.3-2.5-0.2-0.9 0.4-2.2 1.4-2.8 0.9-0.7 1.3-1.9 1-2.5-0.4-0.7-1.3-1.2-1.9-1.2-0.7 0.1-3.4 0.7-6 1.3zm-51.9 31.9q-0.2 3.2-0.5 1c-0.2-1.3-0.9-2.3-1.4-2.3-0.5 0-1.9 1.9-3.1 4.3-1.1 2.3-3.1 6.1-4.5 8.5-1.9 3.3-2.1 4.2-0.9 4.2 0.8 0 2.2 0.7 3 1.5 1.3 1.3 1.6 1.3 2.1-0.7 0.7-2.2 0.7-2.2 1.4-0.3 0.5 1.6 1.6 0 5.6-7.5 2.7-5.2 5.1-9.9 5.3-10.5 0.3-0.6-0.2-0.7-1.2-0.2-0.9 0.4-1.9 0.3-2.2-0.3-0.3-0.5-1.2-1-2-1q-1.5 0-1.6 3.3zm-190.4 6.6c-2.2 1.6-6.2 4.1-9 5.6-2.7 1.6-5.3 3.4-5.7 4.1-0.5 0.8-1.2 1.4-1.8 1.4-0.5 0-2.9 1.5-5.3 3.3-2.3 1.7-5.6 4.4-7.2 5.9-1.7 1.5-4.5 3.6-6.2 4.5-1.8 1-3.5 2.4-3.8 3.1-0.3 0.6 0.2 1.9 1 2.7 1.1 1.1 2 1.2 3.5 0.5 1.1-0.5 2-1.7 2-2.5 0-0.8 0.7-1.5 1.5-1.5 0.8 0 2.2 0.7 3 1.5 0.8 0.8 1.6 1.1 1.8 0.7 0.1-0.4 2.2-2.3 4.7-4.2 2.5-1.9 4.7-3.8 5-4.1 0.3-0.3 2.6-2 5.3-3.7 2.6-1.8 5.2-3.2 5.7-3.2 0.6 0 1-0.4 1-1 0-0.5 1.9-2 4.3-3.2 2.4-1.3 6.7-3.9 9.5-5.8 2.9-1.9 5.3-3.8 5.2-4.2 0-0.5-0.9-0.8-2-0.8-1.1 0-2.2 0.7-2.5 1.5-0.3 0.8-1.5 1.5-2.7 1.5-1.3 0.1-2.7 0.8-3.3 1.7-0.7 1.1-1.5 1.3-2.9 0.7-1.6-0.8-1.3-1.3 2.5-4.2 3.4-2.5 3.9-3.2 2.4-3.2-1.1 0-3.8 1.3-6 2.9zm120.5 34.3c-7.4 0.4-16.4 1-20 1.2-3.6 0.2-11.9 0.9-18.5 1.5-6.6 0.6-14.2 1.3-17 1.6-2.7 0.2-5 0.4-5 0.5 0 0-4 0.3-9 0.6-4.9 0.2-9.1 0.9-9.2 1.4-0.2 0.6-1 1-1.8 1-0.9 0-1.4 0.8-1.2 2 0.1 1.6 1 2.1 4 2.3 2 0.1 5.2 0.2 7 0.3 1.7 0 11.8-0.5 22.2-1.3 10.5-0.7 22.8-1.5 27.5-1.8 4.7-0.2 12.8-0.7 18-1 5.2-0.4 11.5-0.8 14-1 2.5-0.2 4.7-0.5 5-0.6 0.3 0 1.4-0.2 2.5-0.3 1.1-0.1 3.8-0.4 6-0.5l4-0.4c-6.3-1.3-6.5-1.5-4.5-1.6l2.5-0.1c-5-4.1-7.1-4.9-9.5-4.8-1.9 0.1-9.6 0.5-17 1z"/>
		<path id="Path 37" class="s6" d="m300.4 209.9c-1.5 3.1-3.8 6.9-4.9 8.6-1.2 1.7-3.2 4.9-4.3 7.2l-2.2 4.3 6 6c4.1-7.4 6.3-10.6 7.6-12 1.2-1.4 2.5-3.6 2.8-5 0.3-1.4 1.7-3.6 3-5q2.4-2.5 1.8-4.3c-0.4-1-1.3-1.5-1.9-1.2-0.8 0.3-1.5-0.4-1.8-1.5-0.3-1.1-1.1-2.2-1.9-2.4-0.9-0.2-2.4 1.7-4.2 5.3zm94.6 82.7c-0.8 0.3-2.4 1.8-3.5 3.5-1.1 1.6-3.6 3.9-5.5 5.1-1.9 1.2-6.9 3.9-11 6.1-4.1 2.3-9.7 4.4-12.5 4.8-4 0.7-5.6 0.5-8-1-2.2-1.4-3.4-3.2-4.4-6.7-0.7-2.7-1.5-5.7-1.7-6.7-0.2-0.9-1.6-2.2-3.1-2.7-1.6-0.6-2.9-0.9-3.1-0.8-0.1 0.2 0 1.1 0.3 2 0.3 1 1.2 1.8 2 1.8q1.5 0 1.5 3c0 1.6-0.8 3.7-1.7 4.6-1.5 1.3-1.9 1.3-2.5 0.2-0.4-0.7-1.1-0.9-1.5-0.5-0.4 0.4-0.2 1.7 0.5 2.7 0.6 1.1 1.2 2.4 1.2 3 0 0.6 1.5 2.5 3.3 4.4 1.7 1.9 4.7 4.1 6.5 5 2.2 1.1 4.6 1.4 8 1 2.6-0.3 7-1.3 9.7-2.1 2.8-0.9 8.8-4 13.5-6.9 4.7-3 9.1-5.4 9.8-5.4 0.6 0 1.2 0.6 1.2 1.2-0.1 0.7 1.6 3.1 3.6 5.3l3.8 4c15-0.2 18-0.7 20.6-2.1 1.9-1.1 5.4-3.2 7.8-4.7l4.2-2.7c6.5 5.6 7.8 6 12.8 6 4.1 0 8.3-1 15-3.5 5-1.9 10.1-3.5 11.2-3.5 1.3 0 2 0.7 2 1.7-0.1 1-0.7 2.9-1.5 4.3-0.8 1.4-1.4 3.1-1.5 3.7 0 0.8 0.7 1 1.8 0.6 0.9-0.3 2-1.1 2.5-1.7 0.4-0.6 0.6 0.1 0.5 1.6-0.2 1.4-0.7 3-1.1 3.5-0.4 0.4-0.7 1.1-0.7 1.5 0 0.5 1 0.7 2.2 0.5 1.5-0.1 3.1-2.1 5.7-7.2 2-3.9 4.9-8.6 6.3-10.5 1.7-2.1 2.8-4.8 2.8-6.8 0-1.7-0.6-3.5-1.2-3.9-0.7-0.4-2.3-0.9-3.5-1-1.3-0.2-3.8 0.4-5.5 1.2-1.8 0.9-3.9 1.5-4.5 1.5-0.7 0-2.2-0.6-3.2-1.3-1.7-1-2.3-0.9-3.8 0.5-1 1-2.2 1.7-2.8 1.7-0.5 0-1.5 0.6-2.1 1.3-0.6 0.7-3.8 2.3-7 3.5-3.3 1.2-7.2 2.4-8.9 2.7-2.6 0.5-3.5 0-7-3.9-3-3.4-4.7-4.6-6.7-4.5-1.9 0-3.8 1.1-5.8 3.5-1.6 1.9-3.6 3.5-4.2 3.5-0.7 0-3.3 1.3-5.8 2.9-2.9 1.8-6.2 3-9.2 3.2-3.5 0.3-5.3-0.1-6.8-1.4-1.6-1.4-2-2.7-1.7-7.3 0.2-4.6-0.1-5.8-1.8-7-1.1-0.8-2.4-1.4-3-1.3-0.5 0.1-1.7 0.3-2.5 0.5zm-180.5 53.1c-2.2 3.2-5 7.4-6.2 9.5-2 3.3-2.1 3.9-0.8 4.5 1.3 0.7 1.2 1.4-0.7 5.4-1.3 2.5-2.2 5.1-2 5.7 0.1 0.7 0.8 1.2 1.5 1.2 0.6 0 2.8-2.1 4.7-4.7 1.9-2.7 4.1-5.9 4.9-7.3 0.8-1.4 1.7-2.7 2-3 0.3-0.3 1.2-1.4 1.8-2.5 0.7-1.1 2.2-3.7 3.3-5.8 1.8-3.4 1.9-3.9 0.5-6.2-0.8-1.4-2.3-2.5-3.3-2.5-1 0-3.4 2.4-5.7 5.7z"/>
		<path id="Path 38" class="s7" d="m315.5 174.7c-3.9 0.8-11.9 2.5-18 3.9-6.1 1.3-12.8 2.9-15 3.4-2.2 0.5-6.9 1.7-10.5 2.5-3.6 0.9-8.5 2.1-11 2.6-2.5 0.5-6.5 1.6-9 2.4-2.5 0.7-6.8 1.8-9.5 2.4-2.8 0.5-6.7 1.2-8.8 1.5-3.3 0.5-3.5 0.8-2.2 2.1 0.8 0.8 1.5 2 1.5 2.5 0 0.6 0.7 1 1.5 1 0.8 0 1.5-0.4 1.5-1 0-0.6 2.8-0.9 6.8-0.8 3.7 0.1 8.5-0.2 10.7-0.6 2.2-0.4 6.3-1.2 9-1.8 2.8-0.6 5.9-1.4 7-1.9 1.1-0.4 7.9-2.2 15-4 7.1-1.7 16.4-3.8 20.5-4.5 5.1-0.9 7.7-1 8-0.3 0.3 0.6 1.4 0 2.5-1.4 1.5-1.9 2.4-2.3 3.8-1.6 1 0.5 2.2 0.5 3-0.1 0.6-0.5 4-1.3 7.5-1.7 3.4-0.4 6.2-1.1 6.2-1.5 0-0.5-1.1-1-2.5-1.3-1.4-0.3-4.3-0.2-6.5 0.3-3 0.5-4 0.4-4-0.5 0-0.7 1.2-1.3 2.7-1.3 1.6 0 2.4-0.4 2-1-0.4-0.5-1.7-1-2.9-0.9-1.3 0.1-5.4 0.8-9.3 1.6zm51.8 43.6c-5.6 2.9-13.2 6.6-17 8.4-3.7 1.8-12 5.7-18.3 8.7-6.7 3.1-10.9 5.6-10 5.9 1.3 0.5 1.3 0.7 0 1.6-0.8 0.5-1.3 1.2-1 1.5 0.3 0.2 2.5 0.6 5 0.7q4.5 0.2 8.8-1.9c2.3-1.2 4.9-2.2 5.7-2.2 0.8 0 1.6-0.4 1.8-0.8 0.1-0.5 2.9-2.1 6.2-3.6 3.3-1.5 6.7-3.1 7.5-3.6 0.8-0.6 5.1-2.8 9.5-5 4.4-2.2 8.6-4 9.3-4 0.6 0 1.2-0.3 1.2-0.7 0-0.5 1.8-1.6 4-2.5 3.3-1.5 3.9-2.2 3.5-4-0.3-1.3-1.1-2.6-1.8-3-0.6-0.4-1.9-0.7-2.7-0.7-0.8 0-6.1 2.4-11.7 5.2zm108.5 98.7c-0.2 0.6-1.3 1.2-2.6 1.3-1.2 0.1-2.5 1.1-2.9 2.2-0.3 1.1-2.5 4.9-4.8 8.5-2.3 3.6-6 9.6-8.2 13.5-2.2 3.9-5.8 10.1-7.9 14-2.4 4.3-3.8 8.1-3.6 9.8 0.1 1.9 0.7 2.7 2 2.5 0.9-0.1 3.6 0.2 6 0.5 2.5 0.4 4.4 0.3 4.7-0.3 0.3-0.6 0-1-0.7-1-0.6 0-0.8-0.3-0.5-0.7 0.4-0.5 0.2-1.4-0.3-2-0.7-0.9-0.4-2.5 1-5 1.1-2.1 2.5-4.5 3-5.3 0.5-0.8 3-4.9 5.4-9 2.5-4.1 4.5-7.8 4.6-8.2 0-0.5 1.5-3.1 3.3-5.8 1.7-2.8 3.5-5.1 4-5 0.4 0 0.7-0.7 0.7-1.5 0-0.8-0.9-1.5-2-1.5-1.1 0-2-0.3-2-0.7 0-0.5 0.3-1.2 0.7-1.6 0.4-0.5 0.9-2 1-3.3 0.1-1.3 0.1-2.4-0.2-2.4-0.2 0-0.5 0.5-0.7 1zm-131.8 89.5c-4.7 1.3-12.3 3.8-17 5.5-4.7 1.7-10 3.5-11.7 4-2.3 0.7-3.1 1.5-2.8 2.5 0.3 0.8 0.1 1.7-0.5 2-0.5 0.3-0.8 0.9-0.5 1.5 0.3 0.6-0.2 1-1 1-0.8 0-1.7-0.6-1.9-1.2-0.2-0.7-0.6-1.1-1-0.8-0.3 0.3-0.3 1.3 0.1 2.3 0.6 1.4 1.4 1.7 2.8 1.2 1.1-0.4 3.1-0.8 4.5-0.9 1.4-0.1 7.7-2 14-4.3 6.3-2.3 14.5-5.1 18.3-6.2 3.7-1.2 7.6-2.1 8.7-2.1 1.1 0 2.2-0.4 2.5-1 0.3-0.6-0.4-1-1.5-1-1.1 0-2-0.4-2-1 0-0.6-1-1-2.2-1-2-0.1-2-0.2 0.7-1.5 2.3-1 2.5-1.3 1-1.3-1.1 0-5.8 1-10.5 2.3z"/>
		<path id="Path 39" class="s8" d="m486.9 143.4c-0.2 0.3-7.6 1.4-16.4 2.6-8.8 1.2-20.9 2.8-27 3.6-6 0.7-12.4 1.7-14 2-1.6 0.4-3.8 1.8-4.7 3-1 1.3-2.6 2.4-3.5 2.4-1 0-1.6 0.2-1.3 0.5 0.3 0.3 3.4 0.7 7 0.9 3.7 0.2 8.8-0.2 11.8-1 2.8-0.8 7-1.4 9.2-1.4 2.2 0 5-0.5 6.3-1.1 1.2-0.7 6.9-1.6 12.7-2.1 5.8-0.6 11.9-1.1 13.5-1.3 1.6-0.2 5.1-0.5 7.8-0.7 3.7-0.2 4.9-0.7 5.3-2.3 0.4-1.1 0.2-2.1-0.5-2.3-0.6-0.1-0.9-0.9-0.6-1.7 0.4-1.1-0.3-1.5-2.3-1.5-1.6 0-3.1 0.2-3.3 0.4zm455.1 128.7c5.8 0.5 11.5 0.6 12.8 0.4 1.5-0.4 2-0.1 1.4 0.7-0.5 0.9-0.1 1 1.5 0.5 1.4-0.4 2.3-0.3 2.3 0.3 0 0.6-1 1.2-2.3 1.5-1.2 0.3-4.1 0.5-6.5 0.5-2.3 0-4.2 0.3-4.2 0.8 0 0.4 3.2 1 7.2 1.4 4.9 0.5 8.2 1.4 10 2.8 2.2 1.6 4.2 2 9.5 1.9 3.8-0.1 7.9-0.4 9.3-0.8 1.8-0.5 2.6-1.5 2.7-3.4 0.2-1.9-0.3-3-1.7-3.7-1.1-0.6-7.3-1.7-13.8-2.5-6.4-0.8-17.8-1.4-25.2-1.4l-13.5 0.2zm-14.9 3.8c-0.1 0.6-2.5 1.2-5.4 1.3-2.8 0.1 0 0.4 6.3 0.7 6.3 0.3 11.7 0.5 12 0.4 0.3-0.2-0.2-1-1-1.8-0.8-0.9-2.4-1.6-3.5-1.6-1.2 0.1-2.5 0.6-3 1.2-0.7 0.7-1.6 0.7-3.2-0.1q-2.2-1.1-2.2-0.1zm-218.1 15.3c-0.8 0.6-1.3 1.8-1.2 2.5 0.1 0.7-0.3 1.4-0.8 1.5-0.6 0.2-1.2 1-1.3 1.9-0.1 0.8-0.8 2.3-1.5 3.2-0.6 0.9-1.9 1.5-2.7 1.2-0.8-0.3-2.4 0.3-3.5 1.2-1.9 1.6-2 2.3-1 6 0.5 2.4 1.5 4.3 2 4.3 0.5 0 1 0.9 1 2 0 1.1-0.6 2-1.3 2-0.6 0-0.3 0.6 0.8 1.3 1.1 0.8 2.9 1.2 3.9 0.8 1-0.3 2.2-1.5 2.6-2.6 0.4-1.1 1.8-2.9 3.1-4 1.4-1.1 3.9-2.6 5.7-3.3 2.4-0.9 3.1-1.8 2.9-3.5-0.1-1.2-0.9-2.5-1.7-2.9-1.2-0.6-1.2-0.7 0.2-0.7 1-0.1 1.6-0.6 1.3-1.1-0.3-0.6 0.7-1 2.2-1 2.5 0.1 2.6-0.1 1.3-1.5-0.8-0.9-2.2-1.5-3-1.3-0.9 0.2-1.4-0.4-1.3-1.5 0.2-1-0.3-1.7-1.2-1.7-0.8 0-2.1-0.9-2.8-2-0.6-1.1-1.4-2-1.7-2-0.4 0-1.2 0.5-2 1.2zm-235 65.3c0 0.8-0.9 1.9-2 2.5-1.5 0.7-2.4 0.6-3.5-0.5-0.8-0.8-2.2-1.5-3-1.5-0.8 0-2.5 1-3.6 2.3-1.2 1.2-2.8 2.6-3.5 3-0.8 0.4-1.3 1.6-1.2 2.7 0.2 1.1 0.6 2 1 2 0.5 0 0.6 0.4 0.3 1-0.3 0.5-1.5 1-2.7 1-1.1 0-2.9 1-3.9 2.2-1 1.3-1.9 2.6-1.9 3 0 0.4 1.2 1.2 2.7 1.7 2.3 0.7 3 0.5 4-1 0.7-1.1 1.5-1.7 1.8-1.4 0.3 0.3 1.9-0.8 3.7-2.3 1.7-1.5 4.1-3.6 5.3-4.7 1.1-1.1 3-2.6 4.1-3.3 1-0.7 3.1-2 4.6-3 1.6-0.9 2.8-2.3 2.8-3 0-0.7-0.7-1.4-1.5-1.7-0.8-0.3-1.9-0.5-2.5-0.5-0.6 0-1 0.7-1 1.5z"/>
		<path id="Path 40" class="s9" d="m823 178c-2.7 2.3-3.3 3.3-2.6 4.7 0.6 1.4 0.5 1.6-0.5 1.1-0.9-0.4-3.7 1.9-8 6.7-3.6 4-6.6 7.8-6.7 8.4-0.1 0.6-0.9 1.1-1.7 1.1-0.8 0-2.2 1.1-3 2.5-0.8 1.4-5.1 6.2-9.5 10.8-4.4 4.5-8 8.8-8 9.4 0 0.7-0.9 1.3-2 1.3-1.1 0-2 0.3-2 0.7 0 0.5-1.9 2.6-4.2 4.9-2.4 2.2-6.8 6.4-9.8 9.3-3 2.9-7.5 6.5-10 8.1-2.5 1.6-5.6 3.9-7 5.2-1.4 1.3-3.8 3.1-5.3 4-1.5 1-2.9 1.8-3.2 1.8-0.3 0-0.5-0.6-0.5-1.3 0-0.6 0.7-1.9 1.4-2.7 0.8-0.8 5.8-10.3 11.2-21 5.5-10.7 10.2-19.7 10.5-20 0.3-0.3 1.2-2 2-3.8 0.8-1.8 1.7-3.3 2.2-3.2 0.4 0 0.7-0.4 0.7-1 0-0.6 1.2-3.5 2.8-6.5 1.5-3 2.4-5.9 1.9-6.3-0.4-0.4-1.3-0.1-2 0.5-0.9 1-1.5 1-2.5 0-0.7-0.6-1.3-2-1.2-3 0-0.9 0.5-1.5 1-1.2 0.5 0.3 1-0.1 1-0.8 0-0.6-0.4-1.9-0.9-2.7-0.6-1.1-1.3-0.3-2.7 3.2-1.1 2.7-2.2 4.8-2.6 4.8-0.5 0-0.8 0.4-0.8 1 0 0.6-0.6 2.5-1.4 4.2-0.8 1.8-1.7 4-2 4.8-0.4 0.8-2.4 4.7-4.6 8.5-2.1 3.8-5.7 10.8-8 15.5-2.3 4.7-4.6 9.4-5.3 10.5-0.6 1.1-2.9 5.4-5.1 9.5-2.1 4.1-5 9.3-6.3 11.5-1.5 2.4-2.3 4.8-1.9 6 0.3 1.1 1.4 2.1 2.6 2.2 1.1 0.2 2.2-0.4 2.5-1.2 0.3-0.8 1-1.5 1.7-1.5 0.6 0 0.8 0.3 0.5 0.7-0.4 0.5 0.3 1.6 1.6 2.6 1.2 1 2.4 1.8 2.7 1.8 0.3 0 1.6-0.9 3-1.9 1.4-1.1 3-2.1 3.5-2.3 0.6-0.2 3.6-2.2 6.8-4.4 3.2-2.3 5.7-4.8 5.7-5.8 0-1 0.5-1.5 1.3-1.1 0.6 0.3 2-0.2 3-1 0.9-0.9 1.9-1.4 2.2-1.1 0.3 0.3 1.4-0.6 2.5-2 1.1-1.4 2.2-2.5 2.5-2.5 0.3 0 2.8-2.1 5.7-4.8 2.8-2.6 7.2-6.6 9.7-9 2.5-2.3 4.8-4.3 5.1-4.2 0.3 0 1.5-1.3 2.7-2.8 1.1-1.5 3.7-4.3 5.6-6.2 1.9-1.9 4.3-4.2 5.3-5.1 1.1-0.9 3.5-3.6 5.6-6 2-2.4 5.3-6.4 7.3-8.9 2.1-2.5 6-6.6 8.8-9.3 3.5-3.2 6-4.7 7.8-4.7 1.5 0 3.5-0.7 4.3-1.5 0.9-0.8 1.6-1.7 1.6-2 0-0.3-0.6-1.7-1.2-3.3-0.7-1.5-1.7-3-2.3-3.4-0.5-0.4-2.6-0.8-4.5-0.7-2.4 0-4.6 0.9-7 2.9z"/>
		<path id="Path 41" class="s10" d="m912 271.3c-0.3 0.3-6.6 0.6-14 0.7-7.4 0.1-14.1 0.6-14.7 1-0.7 0.4-2.7 0.4-4.5-0.1-1.9-0.5-7.7-0.4-13.8 0.1-5.8 0.6-10.7 1.3-11 1.8-0.3 0.4-5.5 0.8-11.5 0.9-6 0.1-14.6 0.7-19 1.2-4.4 0.6-10.6 1.3-13.8 1.6-3.1 0.3-6.7 0.9-7.9 1.5-1.3 0.5-6.3 1.4-11.3 2-5 0.6-11.2 1.4-14 1.7-2.7 0.3-5.8 0.9-6.7 1.4-1 0.5-3 0.9-4.5 0.9-1.6 0-4.3 0.4-6 1-2.2 0.6-3.1 1.4-2.6 2.2 0.3 0.7-0.3 1.9-1.3 2.5-1.2 0.8-1.6 1.8-1.1 2.8 0.5 1.1 1.7 1.4 4.5 0.9 2-0.3 4.8-0.9 6.2-1.4 1.4-0.5 11-2.2 21.5-3.9 10.5-1.7 25.5-3.7 33.5-4.6 8-0.8 17.6-2 21.5-2.5 3.9-0.5 13.3-1.4 21-1.9 7.7-0.6 21.2-1.4 30-1.7 8.8-0.3 18.5-0.6 21.5-0.5 3.9 0.1 5.1-0.2 4-0.9-1.1-0.7-0.1-1 3.8-1 2.8 0 5.2-0.5 5.2-1 0-0.6 0.8-0.6 2.3 0.1 1.6 0.8 2.5 0.8 3.1 0 0.6-0.6 1.9-1.1 3-1.1 1.2 0 3 0.9 4.1 1.9 1.3 1.3 3 1.8 4.8 1.5 1.5-0.2 2.7-0.9 2.7-1.4 0-0.6 1.9-1 4.3-1 2.3 0 5.2-0.2 6.5-0.5 1.2-0.3 2.2-1 2.2-1.5 0-0.6-0.9-0.7-2.2-0.3-1.4 0.4-2 0.3-1.6-0.2 0.3-0.6-1.3-1-4-1-2.6 0-12.6-0.4-22.2-0.9-9.6-0.5-17.7-0.6-18-0.3zm-352.6 25.6c-2.7 1.5-6.5 3.3-8.4 4.1-1.9 0.8-5.6 2.9-8.2 4.7-2.7 1.8-5.3 3.3-5.8 3.3-0.5 0-2.5 1-4.2 2.2-1.8 1.3-5.8 3.8-8.8 5.6-3 1.8-5.8 3.3-6.2 3.2-0.5 0-2 1.1-3.5 2.5q-2.8 2.5-1.3 2.5c0.8 0-0.5 1.4-2.9 3.2-3.8 2.9-4.1 3.4-2.5 4.2 1.4 0.6 2.2 0.4 2.9-0.7 0.5-0.9 2-1.6 3.3-1.7 1.2 0 2.4-0.7 2.7-1.5 0.3-0.8 1.4-1.5 2.5-1.5 1.1 0 2 0.4 2 1 0 0.5 1.7-0.1 3.8-1.5 2-1.4 4.8-3 6.2-3.6 1.4-0.6 4.3-2.3 6.5-3.8 2.2-1.5 6.5-4 9.5-5.5 3-1.6 6.2-3.4 7-4 0.8-0.7 2.8-1.8 4.3-2.6 2.6-1.4 2.7-1.6 1-2.7-1.5-1.1-1.5-1.3-0.3-1.7 0.8-0.2 2.4-0.7 3.5-1.2 1.1-0.4 2.3-0.6 2.8-0.6 0.4 0.1 0.7-0.6 0.6-1.6 0-0.9-0.4-2.4-0.8-3.3-0.7-1.5-1.3-1.4-5.7 1z"/>
		<path id="Path 42" class="s11" d="m250.4 291c-0.5 0.8-1.5 2.5-2.1 3.8-1.1 1.8-1 2.5 0.2 3.7 0.8 0.8 2.4 1.5 3.5 1.5 1.5 0 2 0.7 2 2.5 0 1.4 0.6 2.8 1.2 3.1 0.7 0.3 2.9-0.2 4.8-1.1 1.9-1 5.4-2.9 7.7-4.4 2.4-1.4 4.3-3.3 4.3-4.1 0-0.8-0.5-2.3-1.2-3.3-1.2-1.6-1.7-1.7-6.1-0.5-3.6 1-5 1-5.5 0.1-0.4-0.6-1.9-1-3.4-1-1.6 0.1-2.8 0.6-2.9 1.2 0 0.6-0.4 0.1-0.8-1-0.6-1.7-0.9-1.8-1.7-0.5zm-176.4 11.6c-2.5 1.3-6.7 4.4-9.5 6.7-2.7 2.3-6.3 5.7-8 7.6-1.6 1.8-3.5 4.5-4.2 6-0.7 1.4-1.2 6-1.3 10.1-0.1 7.1 0.1 7.6 2.5 8.8 1.4 0.6 4.8 1.2 7.5 1.2 2.8 0 12-1.6 20.5-3.5 8.5-1.9 15.7-3.5 16-3.5 0.3 0 0.5-0.7 0.5-1.5 0-0.8-0.5-1.5-1-1.5-0.5 0-0.8-0.7-0.5-1.5 0.4-1.1-0.5-1.6-3.3-2-2-0.2-5.5 0-7.7 0.6-2.2 0.6-4.5 1.5-5 2-0.5 0.4-4.2 1.3-8 1.8-3.8 0.6-7.6 1.1-8.3 1.1-0.6 0-1.4-1-1.7-2.3-0.2-1.2 0-2.6 0.6-3.2 0.5-0.6 0.9-1.8 0.9-2.8 0-0.9 2.5-4.8 5.5-8.7 3-3.9 7.9-8.5 10.8-10.4l5.2-3.4c-6.2-1.6-7.2-2-6.3-2.1 1-0.1 1.6-0.5 1.3-1.1-0.3-0.6-0.8-1-1.3-1-0.4 0.1-2.7 1.2-5.2 2.6zm162 1.9c0 0.8-0.9 2.1-2 2.7-1.1 0.7-2.2 2.2-2.4 3.3-0.3 1.1-0.5 2.3-0.5 2.7-0.1 0.5-0.8 0.8-1.6 0.8-0.8 0-1.5 0.4-1.5 1 0 0.6 1.1 1 2.5 1 1.4 0 2.5 0.1 2.5 0.2 0 0.2-0.6 1.8-1.5 3.5-0.8 1.8-1.2 3.6-0.9 4 0.4 0.5 0.8 0.2 1-0.5 0.2-0.6 0.8-1.2 1.4-1.2 0.6 0 1 1.8 1 4 0 2.2 0.4 4 1 4 0.6 0 1.4-1 1.9-2.3 0.4-1.2 1.5-2.7 2.2-3.3 0.8-0.7 2.3-3 3.4-5.3 1.1-2.3 2.8-4.4 3.8-4.6 1.5-0.4 1.5-0.7 0.2-2-0.8-0.8-1.9-1.5-2.5-1.5-0.6 0-1.2 0.6-1.4 1.2-0.2 0.7-0.7 0.9-1.2 0.5-0.5-0.5-0.8-2.4-0.7-4.3 0.2-2.5-0.1-3.4-1.2-3.4-0.8 0-1.5-0.4-1.5-1 0-0.6-0.4-1-1-1-0.6 0-1 0.7-1 1.5zm46 0.5c0 0.6-0.6 1-1.3 1-0.6 0-1.3 0.6-1.4 1.2-0.1 0.7-0.4 2.2-0.8 3.3-0.5 1.6 0.2 2.4 3.7 4.2 2.7 1.4 6 2.2 8.8 2.2 2.5-0.1 3.7-0.3 2.7-0.5-0.9-0.2-1.7-0.8-1.7-1.4 0-0.6 0.7-1 1.5-1 0.8 0 1.4-0.6 1.2-1.2-0.1-0.7-0.6-1.8-1.2-2.4-0.6-0.6-2.7-1.6-4.8-2.2-2-0.7-3.9-1.9-4.2-2.7-0.3-0.8-0.9-1.5-1.5-1.5-0.6 0-1 0.4-1 1z"/>
		<path id="Path 43" class="s12" d="m219.5 195.6c-2.8 0.7-6.3 1.7-7.9 2.1-1.6 0.5-3.1 1.1-3.4 1.6-0.3 0.4-1.5 0.7-2.8 0.7-1.3 0-3.4 0.4-4.7 0.9-1.2 0.5-4.9 1.7-8.2 2.7l-6 1.6c4.7 2.2 6.8 2.8 7.8 2.8 0.9 0 1.7 0.4 1.7 1 0 0.6-0.9 1-2 1-1.2 0-2 0.7-2 1.8 0 0.9 0.2 1.9 0.5 2.2 0.3 0.3 4.9-1 10.2-2.9 5.4-1.8 10.5-4.1 11.3-5.1 0.9-1 5.9-2.7 13-4.3 6.3-1.5 13.2-3 15.4-3.4 2.1-0.4 4-1.1 4.2-1.5 0.2-0.5-2.1-0.8-5.1-0.8-3 0-5.5 0.4-5.5 1 0 0.6-0.7 1-1.5 1-0.8 0-1.7-0.9-2-2-0.4-1.6-1.3-2-4.3-1.9-2 0-6 0.7-8.7 1.5zm23.7 83c-1.4 0.3-1.9 0.8-1.5 1.6 0.6 0.8-0.3 1-3.2 0.6-3.1-0.5-5.2 0-9.2 2-2.9 1.5-5.3 3.3-5.3 4 0 0.6-0.3 1.1-0.8 1-0.4 0-1.5 0.2-2.5 0.5-0.9 0.4-1.7 1.1-1.7 1.7 0 0.6 0.9 1.2 2 1.5 1.1 0.3 2 0.9 2 1.5 0 0.6 0.8 1.9 1.7 3 1 1.2 2 2.9 2.1 3.8 0.2 0.9 0.4 3.5 0.3 5.7 0 2.2 0.2 5 0.4 6.3 0.3 1.2 1.2 2.2 2 2.2 0.8 0 1.5-0.3 1.6-0.7 0-0.5 0.2-1.7 0.5-2.8 0.2-1.1 1.2-2.5 2.1-3.1 1-0.6 2.1-2.3 2.5-3.7 0.6-1.9 0.2-4.1-1.4-7.4-1.2-2.7-2.6-5.6-3-6.5-0.6-1.4 0-2.3 2.9-4 2.1-1.2 6-2.7 8.8-3.3 3.6-0.8 5-1.5 5-2.8 0-0.9-0.7-1.6-1.5-1.6-0.8 0.1-2.5 0.3-3.8 0.5zm27.6 14.3c0.5 1.1 1 2.6 1.1 3.3 0.1 0.7-1 2-2.4 2.8-2.6 1.5-2.6 1.5-0.6 2.3 1.2 0.4 3 2.5 4.1 4.7 1.1 2.2 2.6 4.3 3.2 4.7 0.7 0.3 1.8-0.3 2.5-1.3 0.7-1 1-2.2 0.8-2.6-0.3-0.5 0.2-0.8 1-0.8 0.8 0 1.7-0.7 2-1.5 0.3-0.8-0.4-3-1.5-4.7-1-1.8-3-4.5-4.2-6-1.3-1.5-3.3-2.7-4.6-2.8-1.9 0-2.2 0.3-1.4 1.9zm133.2 124.2c-1.4 0.6-3.4 0.8-4.6 0.6-1.5-0.3-3.4 0.8-6.3 3.7-2.3 2.2-6.3 7.2-8.9 11-2.6 3.8-5.3 7.8-5.9 9-0.7 1.1-1.3 3.2-1.3 4.6 0 1.4 0.6 3.4 1.3 4.5 1 1.4 1.6 1.7 2 0.8 0.5-0.9 1.9-1.1 4-0.7 2.9 0.5 3.5 0.1 7-4.3 2.1-2.6 7.4-8.2 11.8-12.3 4.4-4.1 8-8.1 7.9-8.7 0-0.7-0.4-1.1-1-0.8-0.6 0.3-1.3-0.5-1.7-1.7-0.6-2.2-0.7-2.2-1.4-0.3-0.7 1.8-0.8 1.7-0.8-0.5 0-1.4 0.6-3.3 1.5-4.2 1.2-1.4 1.2-1.8 0.2-1.7-0.7 0-2.4 0.5-3.8 1zm-100.5 2.9c-3.3 1.7-7.8 3.6-9.9 4.3-2.1 0.6-5.4 2.7-7.3 4.5-1.8 1.7-3.3 3.5-3.3 4 0 0.4 0.6 1.5 1.3 2.4 0.7 1 2.8 2 4.7 2.4 2.9 0.5 4.3 0 8.8-3 2.8-2 5.6-3.6 6.2-3.6 0.6 0 3.8-1.9 7.3-4.2 3.9-2.6 5.6-4.3 4.7-4.6-0.8-0.2-2.8 0.2-4.3 1-2.5 1.1-3 1.1-3.8-0.2-0.5-0.8-0.9-1.8-0.9-2.2 0-0.5 0.4-0.8 1-0.8 0.6 0 1 0.4 1 1 0 0.6 0.7 1 1.5 1 0.8 0 1.3-0.4 1-1-0.3-0.6-0.1-1.2 0.5-1.5 0.6-0.3 0.8-0.9 0.5-1.5-0.3-0.6-1.1-1-1.7-1-0.7 0-4 1.4-7.3 3z"/>
		<path id="Path 45" class="s13" d="m314.3 182.9c-1.7 2-3.7 4.9-4.6 6.6-0.8 1.7-2.5 5.6-3.6 8.7-1.9 5.2-1.9 6-0.6 7.3 0.8 0.8 1.5 1.9 1.5 2.5 0 0.6 0.7 0.8 1.5 0.5 0.9-0.3 1.5 0.1 1.5 1.2 0.1 1.5 0.4 1.3 2.1-0.7 1.1-1.4 3.6-5.3 5.5-8.8 1.9-3.4 3.4-6.8 3.4-7.5-0.1-0.6 0.9-2.1 2-3.2 1.1-1.1 2-2.7 2-3.5 0-0.8-0.6-2.2-1.3-3-0.7-0.8-2.4-2-3.8-2.6-2.3-0.9-2.9-0.7-5.6 2.5zm-132.2 24.6c-1.9 0.7-4.4 2.4-5.5 3.9-2 2.4-2 2.6-0.4 5.1 1.4 2 2.6 2.5 5.8 2.5 2.2 0 5.5-0.8 7.4-1.8 3-1.5 3.3-2 2.8-4.5-0.6-2.4-0.4-2.7 1.5-2.7 1.3 0 2.3-0.4 2.3-1 0-0.6-1-1-2.3-1-1.3 0-2.6-0.4-3-1-0.4-0.6-1.7-1-3-0.9-1.2 0-3.7 0.7-5.6 1.4zm62 93c-1.2 1.9-2.4 3.5-2.9 3.5-0.4 0-0.6 1.9-0.5 4.3 0.1 2.3 0.5 4.4 0.9 4.7 0.4 0.3 0.8-0.1 1-0.8 0.2-0.6 1.1-1.2 1.9-1.2 0.8 0 1.5 0.4 1.5 1 0 0.6 0.7 1 1.5 1 0.8 0 3-1.6 5-3.5 1.9-1.9 3-3.7 2.5-4-0.6-0.3-1-1.6-1-3 0-1.8-0.5-2.5-2-2.5-1.1 0-2.7-0.7-3.5-1.5-0.8-0.8-1.7-1.5-1.9-1.5-0.2 0-1.4 1.6-2.5 3.5z"/>
		<path id="Path 47" class="s14" d="m182 394.8c0.1 0.4-2.3 3.2-5.2 6.2-2.9 3.1-6.4 7.3-7.8 9.5-1.4 2.1-3.2 4.3-4.1 4.9-0.9 0.6-1.9 2.7-2.2 4.6-0.5 2.7-0.3 3.8 1.1 4.6 1.1 0.8 2.8 0.9 4.9 0.3 1.8-0.5 3.6-0.8 4-0.8 0.5 0.1 1.8 0.1 3 0 1.3 0 2.3-0.7 2.3-1.6 0-0.8 1.4-3.4 3-5.8 1.7-2.3 3-4.9 3-5.7 0-0.8 1.3-4.1 3-7.3 1.6-3.1 2.8-6.1 2.5-6.7-0.3-0.6-1.2-0.8-2-0.5-0.8 0.3-1.5 1.5-1.6 2.7 0 1.4-0.2 1.7-0.6 0.8-0.4-1.2-0.7-1.2-1.6 0.3-0.7 1.1-2.1 1.7-3.2 1.5-1.8-0.3-1.7-0.5 0.8-3.1 1.5-1.5 2.7-3.1 2.7-3.7 0-0.6-0.4-1-1-1-0.6 0-1 0.3-1 0.7z"/>
	</g>
</svg>